# xmcd
#
# Track frame offsets:
#	150
#	15310
#	31147
#	49547
#	65945
#	84245
#	99282
#	110652
#	122442
#	136917
#
# Disc length: 2053 seconds
#
# Revision: 2
# Processed by: cddbd v1.4PL0 Copyright (c) Steve Scherf et al.
# Submitted via: dBpowerAMP V4.0
#
DISCID=7308030a
DTITLE=Drängarna - I Afton Logdans
DYEAR=1995
DGENRE=Country
TTITLE0=Vill du bli min fru
TTITLE1=Drängaland
TTITLE2=Dansa and festa
TTITLE3=Storbonden Jansson
TTITLE4=Till ett annat land
TTITLE5=Drängens dröm
TTITLE6=Du käre lille snickerbo
TTITLE7=Visa vid höstacken
TTITLE8=Nere vid floden
TTITLE9=Kom ska vi ta tåget
EXTD=
EXTT0=
EXTT1=
EXTT2=
EXTT3=
EXTT4=
EXTT5=
EXTT6=
EXTT7=
EXTT8=
EXTT9=
PLAYORDER=
